<svg id="Layer_1" data-name="Layer 1" xmlns="http://www.w3.org/2000/svg" width="11.8014cm" height="3.7756cm" viewBox="0 0 334.5276 107.0236"><defs><style>.cls-1{fill:#ff0801;}</style></defs><path class="cls-1" d="M46.1906,85.0557c.3745.7057,2.9324,6.935,2.7634,7.9589-.1723,1.02-4.1617,1.607-4.821,1.7528-.6561.1458-7.6674,6.7659-8.0086,6.06s-1.11-13.6115-1.19-17.316a71.5821,71.5821,0,0,0-1.1166-11.2293c-.4772-1.7926.5964-3.6647,2.1107-6.8092a56.2775,56.2775,0,0,0,2.6441-6.8522A27.7344,27.7344,0,0,0,34.64,62.988C32.9434,65.41,31.25,67.13,30.5511,69.85A42.5537,42.5537,0,0,0,28.1986,66c-.994-1.3354-2.3161-3.9563-5.6163-8.4659,0,0-.5567,1.1763,1.11,5.7521a23.5858,23.5858,0,0,0,5.2419,8.4593s-.9874,12.4122-1.3486,13.6581c-.3579,1.2425,2.25,2.0808,2.7965,2.5712.4606.4142.1823,1.8092.5037,3.0749.3247,1.2658.57,3.1312.1723,3.6813-.4009.55-5.3446,6.3749-6.2525,6.2821S22.6883,95.48,22.188,94.4792s-2.8662-5.8384-3.81-8.1247A63.8331,63.8331,0,0,1,13.9806,72.047c-.9543-6.18-1.72-10.3777-2.3592-15.7588-.6395-5.3844-1.1332-10.3041,0-13.002A30.0023,30.0023,0,0,1,17.3769,35.48c.6759-.5.5235.0663,1.3784,1.9516.8581,1.8821,5,7.77,6.5506,8.9861a55.5047,55.5047,0,0,0,5.6461-5.5136c1.733-2.0543,3.9-3.6581,4.3937-4.3373a1.9584,1.9584,0,0,0,.2883-1.7c-.0762-.4506-.2121-1.3055-.6329-4.37-.4208-3.0682-.7024-5.0331-1.9053-5.3943s-5.1623.7456-8.27,3.39c0,0-.9742,1.0735-1.2724.9609-.3015-.1093-.6328-1.3055-2.0311-2.1372-1.395-.8317-1.7064-1.4016-1.2293-2.28a18.5638,18.5638,0,0,1,2.79-3.5455A13.0723,13.0723,0,0,1,24.7,20.2113a12.56,12.56,0,0,0,6.8091,2.9754,18.088,18.088,0,0,0,2.9125.2453,9.5292,9.5292,0,0,0,4.8012-1.0372,6.8021,6.8021,0,0,1,1.18,2.6541c.9477,4.619,6.1961,4.7051,8.7807,5.3082,2.5845.6,6.3386.5136,10.1192,5.8217,3.784,5.3049,3.3428,15.32-.3782,25.26C55.6268,70.2464,45.8162,84.35,46.1906,85.0557Z"/><path class="cls-1" d="M78.6924,93.3332c-1.3273,1.366-8.8906.5692-12.301.25,0,0,3.2309-3.533,3.3894-4.1851.1584-.6483-2.8073-9.1843-3.4-11.0005s-2.0152-5.2829-3.8314-6.2076-2.94-.5637-2.4425.361c.4937.9284,2.31,3.2051,2.5751,4.5277a59.2068,59.2068,0,0,1,1.1495,8.0754c.0147.6926-.3353,2.3836-.2948,2.461.1142.2284.2837,2.2251-.8731,2.5346-1.1531.3094-4.9219-.2174-6.6091.0847-1.6873.3058-3.1978.91-4.5609.3095.409-.2469.3979-.5232,1.0979-1.2931A22.4942,22.4942,0,0,0,54.912,85.873s-.53-2.0631-.921-3.183c-.5416-1.5547-.0968-2.1574-1.0021-4.384L53,78.2691v-.0036c2.9251-4.87,6.5428-11.1222,8.337-15.9225a45.6806,45.6806,0,0,0,3.1645-16.5155c1.2526-.2874,4.6161.7552,7.1986,3.4666,2.7373,2.8773,6.1524,7.2023,4.3362,16.07-1.82,8.8675-2.8846,7.3608-2.0852,10.4222.7994,3.0578,5.7323,7.1176,5.8465,8.9043C79.9118,86.4809,79.3184,92.689,78.6924,93.3332Z"/><path class="cls-1" d="M19.1866,36.3291c.0846.4231.1571.87.7132.7979a16.226,16.226,0,0,1,6.3465.7615,12.84,12.84,0,0,1,1.278.5779s.3387.0862.4244-.0554c.195-.3222-2.2624-1.9676-5.7649-2.2462A6.7782,6.7782,0,0,0,19.1866,36.3291Z"/><path class="cls-1" d="M21.1134,32.6629c-.2628.0209-.559.2044-.3254.4172s1.289,1.0178,1.7729.9844.6382-.3629,1.1472-.43,1.1763-.5924,1.0512-.801A21.96,21.96,0,0,0,21.1134,32.6629Z"/><path class="cls-1" d="M20.3346,32.1568a1.5041,1.5041,0,0,1-1.321.8314,1.53,1.53,0,0,1-1.5556-1.1068,1.741,1.741,0,0,1,.1173-1.1731,6.837,6.837,0,0,0,1.2241.5611A9.26,9.26,0,0,1,20.3346,32.1568Z"/><path class="cls-1" d="M27.9588,32.66a1.638,1.638,0,0,0,1.0559,1.5347c.9624.4211,1.8513.635,2.2991.127s1.1362-1.2631,1.1094-1.9181C31.9989,32.1671,27.9588,32.66,27.9588,32.66Z"/><path class="cls-1" d="M25.1715,13.8658l-.6423,3.899c-.0026.014-.01.0276-.0121.042-.3,1.8223,2.8913,3.8657,7.1273,4.5636s7.9139-.2138,8.2141-2.0362l.2669-1.62.3825-2.322-8.057,1.0968Z"/><path class="cls-1" d="M34.1014,7.4709,20.4341,10.2982l4.8791,2.7084L32.5925,16.63l8.057-1.0969.6614-.12-4.0657-3.167,4.4556,2.8762-.0748.454-.5751,5.5073a2.55,2.55,0,0,0,2.4344.4011c.6151-1.9477-.6636-6.3467-.6638-6.3467l-.0645-.3933-4.783-2.6418,5.1136,2.4205.151.5384,2.9009-.5286Z"/><g id="WWW.MR..."><path class="cls-1" d="M108.55,31.229v4.2432h7.4424v5.59H108.55V45.44h7.8467v5.59H101.95V25.6392H116.397v5.59Z"/><path class="cls-1" d="M131.1118,41.0625l6.1626-15.4233h7.1734L133.604,51.0308h-5.1186L117.81,25.6392h7.1733Z"/><path class="cls-1" d="M152.6968,31.229v4.2432h7.4424v5.59h-7.4424V45.44h7.8467v5.59H146.0962V25.6392h14.4473v5.59Z"/><path class="cls-1" d="M185.7324,51.0308h-8.2168l-6.23-9.7662h-.0674v9.7662h-6.6011V25.6392h9.8677c5.0176,0,8.8232,2.3906,8.8232,7.8125,0,3.5024-1.9531,6.5332-5.5566,7.1733ZM171.2178,37.0215h.64c2.1553,0,4.58-.4043,4.58-3.1655s-2.4248-3.1656-4.58-3.1656h-.64Z"/><path class="cls-1" d="M183.374,25.6392h7.9141l4.748,6.9033,4.7481-6.9033h7.914L199.3359,38.84v12.191h-6.6005V38.84Z"/><path class="cls-1" d="M220.3145,51.0308h-6.6006V31.229h-5.4551v-5.59h17.5117v5.59h-5.456Z"/><path class="cls-1" d="M244.291,35.4385V25.6392h6.6006V51.0308H244.291V40.625h-9.53V51.0308H228.16V25.6392h6.6005v9.7993Z"/><path class="cls-1" d="M261.8018,51.0308h-6.6006V25.6392h6.6006Z"/><path class="cls-1" d="M266.1113,25.6392h6.6006l12.09,15.5244h.0673V25.6392H291.47V51.0308h-6.6006l-12.09-15.5586h-.0674V51.0308h-6.6006Z"/><path class="cls-1" d="M321.1025,36.853c-.0673,3.7046-.3369,6.87-2.5927,10.0357-2.4922,3.4687-6.2305,4.9839-10.4737,4.9839-7.98,0-13.5371-5.4219-13.5371-13.4029,0-8.2509,5.59-13.6728,13.7735-13.6728,5.22,0,9.2607,2.3574,11.4492,7.1059l-6.2637,2.6265a5.7387,5.7387,0,0,0-5.4892-4.041c-4.3438,0-6.6006,4.1421-6.6006,8.0151,0,3.94,2.3574,7.9473,6.7021,7.9473,2.8623,0,5.0508-1.4815,5.32-4.4116h-5.3877V36.853Z"/></g><g id="WWW.MR...-2" data-name="WWW.MR..."><path class="cls-1" d="M109.3613,66.4429v4.6352h8.13v6.107h-8.13v4.7827h8.5718v6.1069H102.1509V60.3359h15.7822v6.107Z"/><path class="cls-1" d="M122.3877,60.3359h10.2275a13.8711,13.8711,0,1,1,0,27.7388H122.3877Zm7.21,21.6319h1.6192c4.3042,0,7.9829-2.3545,7.9829-7.7627,0-4.9663-3.2739-7.7622-7.91-7.7622h-1.6924Z"/><path class="cls-1" d="M174.1182,60.3359V75.9346c0,3.5683-.1465,7.1-2.9063,9.7856-2.3179,2.2808-5.96,3.09-9.1977,3.09s-6.8794-.8095-9.1968-3.09c-2.7593-2.6855-2.9063-6.2173-2.9063-9.7856V60.3359h7.21v14.605c0,3.6055.2578,7.542,4.8926,7.542s4.8935-3.9365,4.8935-7.542V60.3359Z"/><path class="cls-1" d="M198.5146,69.6436a7.8238,7.8238,0,0,0-6.3271-3.0538c-4.415,0-7.3945,3.3848-7.3945,7.689a7.1943,7.1943,0,0,0,7.5049,7.542,8.2915,8.2915,0,0,0,6.2167-2.9434v8.6455a20.4149,20.4149,0,0,1-6.3642,1.2876,15.442,15.442,0,0,1-10.4111-4.0834,13.5655,13.5655,0,0,1-4.4522-10.4849,14.5179,14.5179,0,0,1,4.084-10.1538A15.0331,15.0331,0,0,1,191.93,59.6a16.9207,16.9207,0,0,1,6.5849,1.3979Z"/><path class="cls-1" d="M210.0332,83.2554,208.12,88.0747h-7.6523l10.6689-27.7388H219.01L229.458,88.0747h-7.6894l-1.8028-4.8193Zm5.04-14.3477H215L212.02,77.7368h5.9971Z"/><path class="cls-1" d="M240.5361,88.0747h-7.2109V66.4429h-5.96v-6.107h19.13v6.107h-5.959Z"/><path class="cls-1" d="M256.3213,88.0747H249.11V60.3359h7.2109Z"/><path class="cls-1" d="M290.3154,73.69c0,8.9761-6.4384,15.3042-15.3408,15.3042S259.6328,82.6665,259.6328,73.69c0-8.3882,7.3584-14.2744,15.3418-14.2744S290.3154,65.3022,290.3154,73.69Zm-23.1767.0367a7.8477,7.8477,0,1,0,15.6718,0c0-3.8262-3.5322-7.3209-7.8359-7.3209S267.1387,69.9009,267.1387,73.7271Z"/><path class="cls-1" d="M293.6689,60.3359h7.211l13.207,16.96h.0733V60.3359h7.2109V88.0747H314.16L300.9531,71.0781H300.88V88.0747h-7.211Z"/></g></svg>